<?xml version="1.0" encoding="UTF-8"?>
<svg id="Layer_1" xmlns="http://www.w3.org/2000/svg" version="1.1" viewBox="0 0 1098.4 565.6">
  <!-- Generator: Adobe Illustrator 29.1.0, SVG Export Plug-In . SVG Version: 2.1.0 Build 142)  -->
  <defs>
    <style>
      .st0 {
        fill: #fff;
      }

      .st1 {
        fill: #ffc836;
      }

      .st2 {
        fill: #0a0094;
      }
    </style>
  </defs>
  <g>
    <path class="st0" d="M622.4,272.6l-69.5-120.4c-3.7-6.4-10.6-10.4-18-10.4h-139c-7.4,0-14.3,4-18,10.4l-69.5,120.4c-3.7,6.4-3.7,14.3,0,20.8l36.8,63.8,32.7,56.6c3.7,6.4,10.6,10.4,18,10.4h139c7.4,0,14.3-4,18-10.4l32.7-56.6,36.8-63.8c3.7-6.4,3.7-14.3,0-20.8Z"/>
    <path class="st1" d="M622.4,272.6l-26.9-46.7h-11.8v113.7h12l26.7-46.3c3.7-6.4,3.7-14.3,0-20.8Z"/>
    <path class="st1" d="M335.3,226h0l-26.9,46.7c-3.7,6.4-3.7,14.3,0,20.8l12.1,21,14.6,25.3h11.5v-113.7h-11.3Z"/>
    <path class="st1" d="M552.9,152.2c-3.7-6.4-10.6-10.4-18-10.4h-139c-7.4,0-14.3,4-18,10.4l-32.4,56.2h239.9l-32.4-56.2Z"/>
    <path class="st1" d="M585.6,357.2h-240.3l32.7,56.6c3.7,6.4,10.6,10.4,18,10.4h139c7.4,0,14.3-4,18-10.4l32.7-56.6h0Z"/>
    <g>
      <path class="st2" d="M364.1,225.7h16.5l15.6,66.3v-66.3h15.3v114.3h-16.5l-15-64.2v64.2h-15.8v-114.3Z"/>
      <path class="st2" d="M464.6,299.4l5.4,40.5h-16.7l-2.5-24.2h-13.2l-2.5,24.2h-16.6l5.4-40.4,9.1-73.9h22.6l9,73.7ZM449.2,299.4l-4.9-47.5-4.9,47.5h9.8Z"/>
      <path class="st2" d="M568.3,299.4l5.4,40.5h-16.7l-2.5-24.2h-13.2l-2.5,24.2h-16.6l5.4-40.4,9.1-73.9h22.6l9,73.7ZM552.8,299.4l-4.9-47.5-4.9,47.5h9.8Z"/>
      <path class="st2" d="M477.1,225.7h22.1c14.6,0,22,8.1,22,24.1v25.7c0,11.8-5.3,19.4-15.8,22.8-2.5.8-5.2,1.2-10,1.2h-1.8v40.5h-16.5v-114.3ZM493.6,241.9v41.2h1.9c2.3,0,3.9-.2,4.7-.5,3-1.2,5.3-3.6,5.3-7.3v-25.7c0-5.2-3.2-7.8-8-7.8h-3.9Z"/>
    </g>
  </g>
  <path class="st0" d="M40.5,14.8c53.2,0,91.5,0,91.5,0v535.8h-57V66.9H9.2L40.5,14.8"/>
  <path class="st0" d="M815.6,9.2c151.1,0,273.6,122.5,273.6,273.6s-122.5,273.6-273.6,273.6-127.7-23.8-175.2-63.4c-47.5,39.6-108.5,63.4-175.2,63.4-151.1,0-273.6-122.5-273.6-273.6S314.1,9.2,465.2,9.2s127.7,23.8,175.2,63.4c47.5-39.6,108.5-63.4,175.2-63.4M815.6,508.6c124.7,0,225.8-101.1,225.8-225.8s-101.1-225.8-225.8-225.8-102.5,18.6-141.1,49.5c40.2,47.6,64.4,109.1,64.4,176.3s-24.2,128.7-64.4,176.3c38.7,31,87.7,49.5,141.1,49.5M465.2,508.6c124.7,0,225.8-101.1,225.8-225.8s-101.1-225.8-225.8-225.8-225.8,101.1-225.8,225.8,101.1,225.8,225.8,225.8"/>
  <path class="st0" d="M575.7,414.2c0-1.4.3-2.7.8-3.9.5-1.2,1.2-2.3,2.1-3.2.9-.9,1.9-1.6,3.2-2.1,1.2-.5,2.5-.8,3.9-.8s2.7.3,3.9.8c1.2.5,2.3,1.2,3.2,2.1.9.9,1.6,1.9,2.1,3.2.5,1.2.8,2.5.8,3.9s-.3,2.7-.8,3.9c-.5,1.2-1.2,2.3-2.1,3.2-.9.9-1.9,1.6-3.2,2.1-1.2.5-2.5.8-3.9.8s-2.7-.3-3.9-.8c-1.2-.5-2.3-1.2-3.2-2.1-.9-.9-1.6-1.9-2.1-3.2-.5-1.2-.8-2.5-.8-3.9ZM593.6,414.2c0-1.1-.2-2.2-.6-3.2-.4-1-1-1.8-1.7-2.6-.7-.7-1.6-1.3-2.5-1.7-1-.4-2-.6-3.1-.6s-2.1.2-3.1.6c-1,.4-1.8,1-2.5,1.7-.7.7-1.3,1.6-1.7,2.6-.4,1-.6,2-.6,3.2s.2,2.2.6,3.2c.4,1,1,1.8,1.7,2.6.7.7,1.6,1.3,2.5,1.7,1,.4,2,.6,3.1.6s2.1-.2,3.1-.6c1-.4,1.8-1,2.5-1.7.7-.7,1.3-1.6,1.7-2.6.4-1,.6-2,.6-3.2ZM581.9,420v-11.6h4.4c2.7,0,4,1.1,4,3.3s0,1-.2,1.4c-.2.4-.4.7-.6,1-.3.3-.6.5-.9.6-.4.1-.7.2-1.1.3l3.3,5.1h-2.2l-3.3-5h-1.4v5h-1.8ZM583.7,410.1v3.3h2.1c.9,0,1.6-.1,2-.4.4-.3.7-.7.7-1.3s-.2-.9-.6-1.2c-.4-.2-.9-.4-1.5-.4h-2.6Z"/>
</svg>